<?xml version="1.0" encoding="UTF-8"?>
<svg xmlns="http://www.w3.org/2000/svg" xmlns:xlink="http://www.w3.org/1999/xlink" width="512" height="512" viewBox="0 0 59 59" version="1.1"><!-- Generator: Sketch 51.3 (57544) - http://www.bohemiancoding.com/sketch --><title>030 - Cake</title><desc>Created with Sketch.</desc><defs/><g id="Page-1" stroke="none" stroke-width="1" fill="none" fill-rule="evenodd"><g id="030---Cake" fill-rule="nonzero"><path d="M51,37 L47,37 L47,23 C47.0002919,21.9390446 46.5789583,20.9214593 45.8287495,20.1712505 C45.0785407,19.4210417 44.0609554,18.9997081 43,19 L15,19 C13.9390446,18.9997081 12.9214593,19.4210417 12.1712505,20.1712505 C11.4210417,20.9214593 10.9997081,21.9390446 11,23 L11,37 L7,37 C5.93904459,36.9997081 4.92145934,37.4210417 4.17125054,38.1712505 C3.42104175,38.9214593 2.99970812,39.9390446 3,41 L2.99999985,55 L55.0000002,55 L55,41 C55.0002919,39.9390446 54.5789583,38.9214593 53.8287495,38.1712505 C53.0785407,37.4210417 52.0609554,36.9997081 51,37 Z" id="Shape" fill="#FB7B76"/><path d="M47,27.5 L47,37 L11,37 L11,29.5 C11.0004967,30.8805061 12.1194939,31.9995033 13.5,32 L14.5,32 C15.8805061,31.9995033 16.9995033,30.8805061 17,29.5 L17,28.5 C17.0004967,27.1194939 18.1194939,26.0004967 19.5,26 L20.5,26 C21.8805061,26.0004967 22.9995033,27.1194939 23,28.5 L23,30.5 C23.0004967,31.8805061 24.1194939,32.9995033 25.5,33 L26.5,33 C27.1636605,33.0020268 27.8007235,32.7392856 28.2700046,32.2700046 C28.7392856,31.8007235 29.0020268,31.1636605 29,30.5 C29.0004967,29.1194939 30.1194939,28.0004967 31.5,28 L32.5,28 C33.8805061,27.9995033 34.9995033,26.8805061 35,25.5 L35,24.5 C35.0004967,23.1194939 36.1194939,22.0004967 37.5,22 L38.5,22 C39.8805061,22.0004967 40.9995033,23.1194939 41,24.5 L41,27.5 C41.0004967,28.8805061 42.1194939,29.9995033 43.5,30 L44.5,30 C45.8805061,29.9995033 46.9995033,28.8805061 47,27.5 Z" id="Shape" fill="#7F5B53"/><rect id="Rectangle-path" fill="#59474E" x="11" y="35" width="36" height="3"/><path d="M47,23 L47,27.5 C46.9995033,28.8805061 45.8805061,29.9995033 44.5,30 L43.5,30 C42.1194939,29.9995033 41.0004967,28.8805061 41,27.5 L41,24.5 C40.9995033,23.1194939 39.8805061,22.0004967 38.5,22 L37.5,22 C36.1194939,22.0004967 35.0004967,23.1194939 35,24.5 L35,25.5 C34.9995033,26.8805061 33.8805061,27.9995033 32.5,28 L31.5,28 C30.1194939,28.0004967 29.0004967,29.1194939 29,30.5 C29.0020268,31.1636605 28.7392856,31.8007235 28.2700046,32.2700046 C27.8007235,32.7392856 27.1636605,33.0020268 26.5,33 L25.5,33 C24.1194939,32.9995033 23.0004967,31.8805061 23,30.5 L23,28.5 C22.9995033,27.1194939 21.8805061,26.0004967 20.5,26 L19.5,26 C18.1194939,26.0004967 17.0004967,27.1194939 17,28.5 L17,29.5 C16.9995033,30.8805061 15.8805061,31.9995033 14.5,32 L13.5,32 C12.1194939,31.9995033 11.0004967,30.8805061 11,29.5 L11,23 C10.9997081,21.9390446 11.4210417,20.9214593 12.1712505,20.1712505 C12.9214593,19.4210417 13.9390446,18.9997081 15,19 L43,19 C44.0609554,18.9997081 45.0785407,19.4210417 45.8287495,20.1712505 C46.5789583,20.9214593 47.0002919,21.9390446 47,23 Z" id="Shape" fill="#FB7B76"/><rect id="Rectangle-path" fill="#F5EFCA" x="27" y="12.43" width="4" height="6.57"/><rect id="Rectangle-path" fill="#F9EAB0" x="27" y="17" width="4" height="4"/><path d="M55,41 L55,49.5 C54.2429668,50.070438 53.2282321,50.1630863 52.3804119,49.7391762 C51.5325917,49.3152661 50.9978696,48.4478894 51,47.5 L51,44.5 C50.9995033,43.1194939 49.8805061,42.0004967 48.5,42 L47.5,42 C46.1194939,42.0004967 45.0004967,43.1194939 45,44.5 C45.0020268,45.1636605 44.7392856,45.8007235 44.2700046,46.2700046 C43.8007235,46.7392856 43.1636605,47.0020268 42.5,47 L41.5,47 C40.1194939,46.9995033 39.0004967,45.8805061 39,44.5 C39.0020268,43.8363395 38.7392856,43.1992765 38.2700046,42.7299954 C37.8007235,42.2607144 37.1636605,41.9979732 36.5,42 L35.5,42 C34.1194939,42.0004967 33.0004967,43.1194939 33,44.5 L33,46.5 C32.9995033,47.8805061 31.8805061,48.9995033 30.5,49 L29.5,49 C28.1194939,48.9995033 27.0004967,47.8805061 27,46.5 L27,45.5 C26.9995033,44.1194939 25.8805061,43.0004967 24.5,43 L23.5,43 C22.1194939,43.0004967 21.0004967,44.1194939 21,45.5 L21,48.5 C20.9995033,49.8805061 19.8805061,50.9995033 18.5,51 L17.5,51 C16.1194939,50.9995033 15.0004967,49.8805061 15,48.5 L15,45.5 C14.9995033,44.1194939 13.8805061,43.0004967 12.5,43 L11.5,43 C10.1194939,43.0004967 9.00049671,44.1194939 9,45.5 L9,46.5 C8.99950329,47.8805061 7.88050608,48.9995033 6.5,49 L5.5,49 C4.11949392,48.9995033 3.00049671,47.8805061 3,46.5 L3,41 C2.99970812,39.9390446 3.42104175,38.9214593 4.17125054,38.1712505 C4.92145934,37.4210417 5.93904459,36.9997081 7,37 L51,37 C52.0609554,36.9997081 53.0785407,37.4210417 53.8287495,38.1712505 C54.5789583,38.9214593 55.0002919,39.9390446 55,41 Z" id="Shape" fill="#FB7B76"/><path d="M55,49.5 L55,55 L3,55 L3,46.5 C3.00049671,47.8805061 4.11949392,48.9995033 5.5,49 L6.5,49 C7.88050608,48.9995033 8.99950329,47.8805061 9,46.5 L9,45.5 C9.00049671,44.1194939 10.1194939,43.0004967 11.5,43 L12.5,43 C13.8805061,43.0004967 14.9995033,44.1194939 15,45.5 L15,48.5 C15.0004967,49.8805061 16.1194939,50.9995033 17.5,51 L18.5,51 C19.8805061,50.9995033 20.9995033,49.8805061 21,48.5 L21,45.5 C21.0004967,44.1194939 22.1194939,43.0004967 23.5,43 L24.5,43 C25.8805061,43.0004967 26.9995033,44.1194939 27,45.5 L27,46.5 C27.0004967,47.8805061 28.1194939,48.9995033 29.5,49 L30.5,49 C31.8805061,48.9995033 32.9995033,47.8805061 33,46.5 L33,44.5 C33.0004967,43.1194939 34.1194939,42.0004967 35.5,42 L36.5,42 C37.1636605,41.9979732 37.8007235,42.2607144 38.2700046,42.7299954 C38.7392856,43.1992765 39.0020268,43.8363395 39,44.5 C39.0004967,45.8805061 40.1194939,46.9995033 41.5,47 L42.5,47 C43.1636605,47.0020268 43.8007235,46.7392856 44.2700046,46.2700046 C44.7392856,45.8007235 45.0020268,45.1636605 45,44.5 C45.0004967,43.1194939 46.1194939,42.0004967 47.5,42 L48.5,42 C49.8805061,42.0004967 50.9995033,43.1194939 51,44.5 L51,47.5 C51,48.4469301 51.5350059,49.3125879 52.381966,49.736068 C53.2289261,50.159548 54.2424559,50.0681581 55,49.5 Z" id="Shape" fill="#7F5B53"/><path d="M14,8 C13.4477153,8 13,7.55228475 13,7 L13,6 C13,5.44771525 13.4477153,5 14,5 C14.5522847,5 15,5.44771525 15,6 L15,7 C15,7.55228475 14.5522847,8 14,8 Z" id="Shape" fill="#F0C419"/><path d="M17,10 L16,10 C15.4477153,10 15,9.55228475 15,9 C15,8.44771525 15.4477153,8 16,8 L17,8 C17.5522847,8 18,8.44771525 18,9 C18,9.55228475 17.5522847,10 17,10 Z" id="Shape" fill="#F0C419"/><path d="M14,13 C13.4477153,13 13,12.5522847 13,12 L13,11 C13,10.4477153 13.4477153,10 14,10 C14.5522847,10 15,10.4477153 15,11 L15,12 C15,12.5522847 14.5522847,13 14,13 Z" id="Shape" fill="#F0C419"/><path d="M12,10 L11,10 C10.4477153,10 10,9.55228475 10,9 C10,8.44771525 10.4477153,8 11,8 L12,8 C12.5522847,8 13,8.44771525 13,9 C13,9.55228475 12.5522847,10 12,10 Z" id="Shape" fill="#F0C419"/><path d="M6,16 C5.44771525,16 5,15.5522847 5,15 L5,14 C5,13.4477153 5.44771525,13 6,13 C6.55228475,13 7,13.4477153 7,14 L7,15 C7,15.5522847 6.55228475,16 6,16 Z" id="Shape" fill="#FF5364"/><path d="M9,18 L8,18 C7.44771525,18 7,17.5522847 7,17 C7,16.4477153 7.44771525,16 8,16 L9,16 C9.55228475,16 10,16.4477153 10,17 C10,17.5522847 9.55228475,18 9,18 Z" id="Shape" fill="#FF5364"/><path d="M6,21 C5.44771525,21 5,20.5522847 5,20 L5,19 C5,18.4477153 5.44771525,18 6,18 C6.55228475,18 7,18.4477153 7,19 L7,20 C7,20.5522847 6.55228475,21 6,21 Z" id="Shape" fill="#FF5364"/><path d="M4,18 L3,18 C2.44771525,18 2,17.5522847 2,17 C2,16.4477153 2.44771525,16 3,16 L4,16 C4.55228475,16 5,16.4477153 5,17 C5,17.5522847 4.55228475,18 4,18 Z" id="Shape" fill="#FF5364"/><path d="M44,11 C43.4477153,11 43,10.5522847 43,10 L43,9 C43,8.44771525 43.4477153,8 44,8 C44.5522847,8 45,8.44771525 45,9 L45,10 C45,10.5522847 44.5522847,11 44,11 Z" id="Shape" fill="#FF5364"/><path d="M47,13 L46,13 C45.4477153,13 45,12.5522847 45,12 C45,11.4477153 45.4477153,11 46,11 L47,11 C47.5522847,11 48,11.4477153 48,12 C48,12.5522847 47.5522847,13 47,13 Z" id="Shape" fill="#FF5364"/><path d="M42,13 L41,13 C40.4477153,13 40,12.5522847 40,12 C40,11.4477153 40.4477153,11 41,11 L42,11 C42.5522847,11 43,11.4477153 43,12 C43,12.5522847 42.5522847,13 42,13 Z" id="Shape" fill="#FF5364"/><path d="M44,16 C43.4477153,16 43,15.5522847 43,15 L43,14 C43,13.4477153 43.4477153,13 44,13 C44.5522847,13 45,13.4477153 45,14 L45,15 C45,15.5522847 44.5522847,16 44,16 Z" id="Shape" fill="#FF5364"/><path d="M55,3 C54.4477153,3 54,2.55228475 54,2 L54,1 C54,0.44771525 54.4477153,1.01453063e-16 55,0 C55.5522847,-1.01453063e-16 56,0.44771525 56,1 L56,2 C56,2.55228475 55.5522847,3 55,3 Z" id="Shape" fill="#F0C419"/><path d="M58,5 L57,5 C56.4477153,5 56,4.55228475 56,4 C56,3.44771525 56.4477153,3 57,3 L58,3 C58.5522847,3 59,3.44771525 59,4 C59,4.55228475 58.5522847,5 58,5 Z" id="Shape" fill="#F0C419"/><path d="M55,8 C54.4477153,8 54,7.55228475 54,7 L54,6 C54,5.44771525 54.4477153,5 55,5 C55.5522847,5 56,5.44771525 56,6 L56,7 C56,7.55228475 55.5522847,8 55,8 Z" id="Shape" fill="#F0C419"/><path d="M53,5 L52,5 C51.4477153,5 51,4.55228475 51,4 C51,3.44771525 51.4477153,3 52,3 L53,3 C53.5522847,3 54,3.44771525 54,4 C54,4.55228475 53.5522847,5 53,5 Z" id="Shape" fill="#F0C419"/><path d="M55,20 C54.4477153,20 54,19.5522847 54,19 L54,18 C54,17.4477153 54.4477153,17 55,17 C55.5522847,17 56,17.4477153 56,18 L56,19 C56,19.5522847 55.5522847,20 55,20 Z" id="Shape" fill="#F0C419"/><path d="M58,22 L57,22 C56.4477153,22 56,21.5522847 56,21 C56,20.4477153 56.4477153,20 57,20 L58,20 C58.5522847,20 59,20.4477153 59,21 C59,21.5522847 58.5522847,22 58,22 Z" id="Shape" fill="#F0C419"/><path d="M55,25 C54.4477153,25 54,24.5522847 54,24 L54,23 C54,22.4477153 54.4477153,22 55,22 C55.5522847,22 56,22.4477153 56,23 L56,24 C56,24.5522847 55.5522847,25 55,25 Z" id="Shape" fill="#F0C419"/><path d="M53,22 L52,22 C51.4477153,22 51,21.5522847 51,21 C51,20.4477153 51.4477153,20 52,20 L53,20 C53.5522847,20 54,20.4477153 54,21 C54,21.5522847 53.5522847,22 53,22 Z" id="Shape" fill="#F0C419"/><rect id="Rectangle-path" fill="#BDC3C7" x="0" y="55" width="58" height="4" rx="1"/><rect id="Rectangle-path" fill="#59474E" x="3" y="53" width="52" height="2"/><path d="M29,3.1667 C28.1997039,1.80371085 26.7284938,0.976152747 25.1481,1 C24.0341376,0.89446878 22.9302864,1.28526453 22.1308639,2.06819022 C21.3314413,2.85111592 20.9177165,3.94657953 21,5.0625 C21,7.7708 22.7778,8.8542 23.963,9.9375 C25.1482,11.0208 29,14 29,14 C29,14 32.8519,11.0208 34.037,9.9375 C35.2221,8.8542 37,7.7708 37,5.0625 C37.0822835,3.94657953 36.6685587,2.85111592 35.8691361,2.06819022 C35.0697136,1.28526453 33.9658624,0.89446878 32.8519,1 C31.2715062,0.976152747 29.8002961,1.80371085 29,3.1667 Z" id="Shape" fill="#DF4D60"/><path d="M29,2.8333 C28.322737,1.68010027 27.0779177,0.979910873 25.7407,1 C24.7980634,0.910508842 23.8639124,1.24111526 23.1874205,1.90363407 C22.5109286,2.56615289 22.1608998,3.49320108 22.2307,4.4375 C22.2307,6.7292 23.7349,7.6458 24.7378,8.5625 C25.7407,9.4792 29,12 29,12 C29,12 32.2593,9.4792 33.2621,8.5625 C34.2649,7.6458 35.7692,6.7292 35.7692,4.4375 C35.838996,3.49322018 35.4889802,2.56619057 34.8125115,1.90367567 C34.1360428,1.24116077 33.2019202,0.910540332 32.2593,1 C30.9220823,0.979910873 29.677263,1.68010027 29,2.8333 Z" id="Shape" fill="#FF5364"/><circle id="Oval" fill="#FB7B76" cx="25" cy="4" r="2"/></g></g></svg>
